<svg xmlns="http://www.w3.org/2000/svg" viewBox="0 0 64 64" fill="none">
  <g fill="#3d5cff">
    <path fill-rule="evenodd" d="M6 6h16v16H6Z M9 9h10v10H9Z"/>
    <rect x="11" y="11" width="6" height="6" rx="1"/>
    <path fill-rule="evenodd" d="M42 6h16v16H42Z M45 9h10v10H45Z"/>
    <rect x="47" y="11" width="6" height="6" rx="1"/>
    <path fill-rule="evenodd" d="M6 42h16v16H6Z M9 45h10v10H9Z"/>
    <rect x="11" y="47" width="6" height="6" rx="1"/>
    <rect x="30" y="30" width="5" height="5" rx="1"/>
    <rect x="39" y="30" width="5" height="5" rx="1" opacity=".5"/>
    <rect x="48" y="30" width="5" height="5" rx="1"/>
    <rect x="30" y="39" width="5" height="5" rx="1" opacity=".5"/>
    <rect x="48" y="39" width="5" height="5" rx="1"/>
    <rect x="30" y="48" width="5" height="5" rx="1"/>
    <rect x="39" y="48" width="5" height="5" rx="1"/>
    <rect x="48" y="48" width="5" height="5" rx="1" opacity=".5"/>
  </g>
</svg>
